<svg id="图层_2" data-name="图层 2" xmlns="http://www.w3.org/2000/svg" viewBox="0 0 1650.22 510.86"><defs><style>.cls-1{fill:#fa4715;}.cls-2{fill:#fff;}</style></defs><path class="cls-1" d="M1999.39,464.71v23l73.07,73.07H1597.3v-1l-2.42,0c-3.52-.05-7.09-.2-10.69-.48-35.08-2.66-73.89-17.41-119.53-78.5-19.85-26.59-42.26-40.06-66.59-40.06-1.48,0-3,.05-4.49.15-35.23,2.34-70.88,32.79-100.42,85.72-3.31,5.93-7,12-11.06,18.1-13.53,20.17-31.42,40.27-54.36,54.09a122.43,122.43,0,0,1-64.19,17.91c-24.24,0-50.45-6.67-77.93-19.86a349.75,349.75,0,0,0-74.91-26.09,307.32,307.32,0,0,0-57.51-7.33c-1.44,0-2.88-.08-4.3-.1s-2.84,0-4.24,0c-3.71,0-7.42.08-11.11.23-7.57.29-15.11.89-22.51,1.8-44.94,5.46-87,21.52-125.6,47.89a369.78,369.78,0,0,0-18.39-34.35c-29.6-48.83-68-86.48-111-108.85-131-68.12-146.16-89.15-169.53-175.11l-18.5,5c12.85,47.26,24.14,76.28,49.5,103.07,26,27.51,65.68,50.76,129.69,84,55,28.6,97.2,82.09,122.63,137.58A353.06,353.06,0,0,0,741.55,649c-51.28,49.33-49.25,88.42-43.47,107.32,7.12,23.32,27.29,41.2,51.55,45.84l2.1.37a62.56,62.56,0,0,0,9.7.77,54.62,54.62,0,0,0,36.66-13.6c15.49-13.89,21.37-42.53,16.54-80.63-3.13-24.74-10.54-51.57-21.28-77.93,41.63-28.94,88-45.37,136.73-48.25q7.73-.45,15.54-.45l3.77,0c1.41,0,2.84,0,4.27.09a283.15,283.15,0,0,1,58.63,8,332.23,332.23,0,0,1,65,23.47c29.88,14.33,58.72,21.61,85.71,21.61a143,143,0,0,0,73.34-20.06,172.44,172.44,0,0,0,34.89-27.5q6.06-6.1,11.78-12.93a243.87,243.87,0,0,0,21.79-30.62q2.58-4.25,5.06-8.69c25.88-46.39,56.84-74.06,84.94-75.93,1-.07,2-.1,3-.1,18.1,0,35.41,10.89,51.44,32.35,25.48,34.11,50.87,57.34,77.6,71,18.63,9.52,33.88,13.6,57.28,14.66l1.07,0c2.7.11,5.51.18,8.45.21,1.17,0,2.38,0,3.59,0v-1.09h514.45ZM795.62,711.51c3.89,30.75,0,54.66-10.33,64a34.82,34.82,0,0,1-23.69,8.72,43.45,43.45,0,0,1-6.57-.51l-2.1-.36c-17.22-3.41-31.48-16.08-36.52-32.55-7.75-25.4,5.89-56.62,38.43-87.92q11.07-10.65,22.75-19.93C786.77,666.44,792.88,689.88,795.62,711.51Z" transform="translate(-466.67 -293.54)"/><path class="cls-1" d="M2095.92,559.73l-97.6-97.6v26l71.57,71.57H1585.26v18.4h529.07Zm-502.5,17.34c-2.44-.05-4.81-.1-7.1-.18v-16.1h486.14l-73.07-73.07v-23l112.36,112.36Z" transform="translate(-466.67 -293.54)"/><path class="cls-2" d="M1997.26,459.57v29l70,70.06H1595.65c-37.7-.45-79.6-10.91-130.14-78.56-20.07-26.88-42.74-40.48-67.45-40.48-1.51,0-3,.05-4.55.15-35.61,2.37-71.57,33-101.28,86.26-3.48,6.24-7.27,12.5-11.39,18.62-13.89,20.66-31.5,40-53.52,53.24a121.64,121.64,0,0,1-63.77,17.7c-22.8,0-48.53-5.87-77.47-19.75a347.53,347.53,0,0,0-76.25-26.46,305.31,305.31,0,0,0-56.75-7.08c-1.44,0-2.88-.08-4.33-.1s-2.73,0-4.1,0c-3.84,0-7.69.07-11.51.25q-11.21.44-22.24,1.78c-44.71,5.44-86.58,21.32-125,47.37l-1.78,1.22q-7,4.82-13.88,10.1l-1.72,1.33a353.25,353.25,0,0,0-27.68,24c-51.7,49.72-49.6,89.26-43.75,108.4,7.34,24,28.32,42.38,53.43,46.77l.37-2.13-2.1-.37c-23.39-4.88-42.77-22.3-49.67-44.89-5.7-18.67-7.68-57.31,43.19-106.25a349.91,349.91,0,0,1,27.13-23.59l1.71-1.34Q778,619.58,785,614.75c.59-.42,1.19-.82,1.78-1.22,38.26-26,79.91-41.8,124.38-47.21,7.47-.9,15.07-1.51,22.72-1.8,3.57-.14,7.18-.21,10.76-.21,1.45,0,2.91,0,4.36,0s2.86,0,4.3.11a305.46,305.46,0,0,1,58.15,7.48c1.19.26,2.39.53,3.58.82a349.94,349.94,0,0,1,70.12,25c27.62,13.25,54,20,78.39,20a123.84,123.84,0,0,0,64.65-18c20.49-12.27,39-30.74,55.19-55.05q5.55-8.32,10.71-17.57c29.34-52.61,64.7-82.85,99.54-85.17,1.48-.1,3-.15,4.42-.15,24,0,46.11,13.33,65.75,39.62,45.93,61.49,85,76.3,120.38,78.94l1.06.08c3.4.22,6.75.35,10.08.4h477.13l-73.07-73.08v-23l112.36,112.36H1593.42c-2.45,0-4.81-.1-7.1-.18l-1.07,0-1.06-.05c-23.21-1-38.33-5.1-56.8-14.53-26.58-13.58-51.85-36.71-77.24-70.69-16.24-21.75-33.83-32.77-52.29-32.77-1,0-2,0-3.09.11-28.46,1.88-59.74,29.75-85.79,76.47q-2.64,4.71-5.39,9.22a242.65,242.65,0,0,1-21.92,30.61q-5.31,6.28-10.93,12a172.45,172.45,0,0,1-35,27.58,145.08,145.08,0,0,1-15.43,7.92,141.7,141.7,0,0,1-57.32,12c-26.83,0-55.51-7.23-85.25-21.5a334.08,334.08,0,0,0-65.07-23.5,284.06,284.06,0,0,0-59-8.1c-1.43,0-2.85-.08-4.27-.1l-3.84,0q-7.41,0-14.75.42c-48.8,2.72-95.29,19-137,47.72L792,630.79q-7.1,5-14,10.39l-1.74,1.38q-11.39,9.11-22.22,19.52c-32.85,31.59-46.58,63.2-38.7,89,5,16.51,19.16,29.3,36.3,33.07l2.1.37.36-2c-17.29-3-31.71-15.59-36.73-32-7.64-25,5.91-55.81,38.14-86.83q10.53-10.12,21.55-19l1.74-1.38q6.9-5.49,14-10.46l1.79-1.24C836,603,881.58,587,929.18,584.05q8.18-.51,16.43-.52c1.23,0,2.46,0,3.69,0,1.42,0,2.85,0,4.28.08a282.66,282.66,0,0,1,58.23,8,330,330,0,0,1,65.06,23.43c30.16,14.47,59,21.71,86.17,21.71h0a143.27,143.27,0,0,0,58.17-12.13,147.08,147.08,0,0,0,15.78-8.11,173.77,173.77,0,0,0,34.83-27.43c4.34-4.34,8.55-9,12.61-13.87a247.19,247.19,0,0,0,21.65-30.62q2.43-4,4.75-8.18c25.69-46.06,56.34-73.54,84.08-75.38,1-.07,2-.1,2.94-.1,17.75,0,34.75,10.72,50.59,31.92,25.58,34.24,51.09,57.57,78,71.3,18.37,9.39,33.74,13.68,57.77,14.77,2.85.13,5.84.22,9,.27h523.75Z" transform="translate(-466.67 -293.54)"/><path class="cls-2" d="M815.69,709c-3.12-24.59-10.43-51.23-21.05-77.42-.27-.67-.54-1.34-.82-2L792,630.79c.28.67.55,1.33.81,2,10.45,25.88,17.65,52.17,20.72,76.45,4.78,37.74-1,66-16.19,79.7a53.56,53.56,0,0,1-36,13.33,60.63,60.63,0,0,1-8.47-.6l-2.09-.36-.38,2.13a63.87,63.87,0,0,0,10.94,1,55.54,55.54,0,0,0,37.37-13.87C814.56,776.4,820.55,747.43,815.69,709Zm-31.11,65.7a33.83,33.83,0,0,1-23,8.45,42.4,42.4,0,0,1-7.43-.67h0l-.36,2,2.1.36a44.17,44.17,0,0,0,5.69.37,35.85,35.85,0,0,0,24.41-9c10.62-9.53,14.6-33.78,10.67-64.89-2.72-21.48-8.75-44.75-17.81-68.12-.26-.69-.53-1.38-.8-2.07l-1.74,1.38c.27.69.54,1.38.8,2.07,8.86,23,14.76,45.88,17.44,67C798.41,742.05,794.67,765.62,784.58,774.67ZM769.41,626.21l1.71-1.34c-.3-.66-.6-1.31-.91-2C744.63,567.64,702.5,514.53,647.66,486c-63.9-33.22-103.45-56.41-129.4-83.82-25-26.44-36.27-55.11-49-101.58l16.45-4.46c23.32,85.49,38.87,106.69,169.78,174.75,42.87,22.28,81.12,59.79,110.62,108.46a366.08,366.08,0,0,1,18,33.43c.32.65.62,1.3.92,2,.59-.42,1.19-.82,1.78-1.22-.3-.65-.61-1.3-.92-1.95A370.14,370.14,0,0,0,768,578.26c-29.7-49-68.24-86.78-111.45-109.24-131.18-68.2-145.84-89-169.28-175.48l-20.56,5.58c13,48,24.34,77.39,50.05,104.54,26.15,27.63,65.85,50.93,130,84.26,54.56,28.36,96.45,81.29,121.81,136.31C768.81,624.89,769.11,625.55,769.41,626.21Z" transform="translate(-466.67 -293.54)"/></svg>