<svg id="图层_1" data-name="图层 1" xmlns="http://www.w3.org/2000/svg" viewBox="0 0 1269.49 263.39"><defs><style>.cls-1{fill:#fff;}</style></defs><path class="cls-1" d="M452.32,494.47a87,87,0,0,1,7.17-7.2l27.22-83.1H430.39L397.61,523.91c-3.26,10.43,3.69,16.77,11.72,24.12,3.56,3.24,7.24,6.6,10,10.42l.18.28c1.07,2.16,1.07,5,1.07,6.92V583l-4.2-16.79c-.52-2.09-2-3.43-3.78-5.13-.49-.46-1-.93-1.51-1.44A129.15,129.15,0,0,0,398,551.22c-11.23-6.57-22.85-13.37-26.66-27.31L341.45,404.17h-48.7L262.68,523.62c-3.5,11.83,6.08,20.31,15.34,28.52,2.34,2.07,4.54,4,6.56,6,2.32,2.33,2.32,4.71,2.32,7.47v6.15L283.1,567c-5.37-6.83-12.45-11-19.94-15.41a104.38,104.38,0,0,1-14.66-9.81c-4.75-4-10.7-10.33-12.09-18.18L204.15,404.17H147l37.86,115.35c3.62,11.72,13.34,17.78,23.64,24.18,9.76,6.07,19.85,12.35,23.81,23.8,2.41,6.43-4.08,11.75-9.81,16.44-1.88,1.54-3.65,3-5.11,4.43-4.21,5-7,12.63-3.83,18.68l.14.33,14.2,43.27h45.68l11-40.48a46.61,46.61,0,0,1,2.29-6.81c1.57-5,5.33-8.2,9-11.31,1.28-1.1,2.5-2.13,3.59-3.23,4.11-3.77,9.29-6.28,14.3-8.71,7.82-3.8,15.21-7.38,16.61-14.86.94-5.64-3.85-9.26-9.4-13.44a55.23,55.23,0,0,1-8-6.88l-.14-.18c-5.38-7.53-7-15.72-4.37-22.48L317,490.74l8.53,31.64c3.3,13.31,14.23,19.47,25.79,26,6.74,3.8,13.72,7.73,19.2,13.22l.24.24.16.31a13.68,13.68,0,0,1,1.93,6.06v.45l-.19.41c-2.66,6-7.63,10.77-12.44,15.38-8.1,7.77-15.09,14.48-11.08,25.57l.06.17,10.91,40.47H406l14.18-43.27a32.43,32.43,0,0,1,11.33-16.72A105.77,105.77,0,0,1,427.69,562C427.69,535.56,436,512.85,452.32,494.47Z" transform="translate(-147 -390.45)"/><path class="cls-1" d="M589.43,622.28l-.06-.13a112.61,112.61,0,0,1-6-27.94c-3.08,1.25-6.16,2.61-9.39,4-7.18,3.16-14.6,6.43-22.55,8.7-2.43.67-4.93,1.24-7.43,1.7a99.9,99.9,0,0,1-23.82,1.27,48.85,48.85,0,0,1-26.21-9.6c-8.3-6-13.31-13.6-14.9-22.6l-.44-2.5h68.55l4.14-.11,2.82-.07c15.1-1.25,30-.91,44.39-.58l4.87.11c-1.84-2.89-4-5.74-6.12-8.51-5.82-7.65-11.85-15.56-12.56-26-.22-2-.3-4.07-.38-6.1l0-.69v-32c-5.73-8.53-14.18-15.67-25.15-21.23-11.75-5.95-26.06-9-42.53-9h-2.13v-.15c-20.17.42-37.39,6.72-51.34,18.79-1.08.93-2.15,1.91-3.2,2.92s-2.27,2.25-3.37,3.44c-.37.4-.73.81-1.1,1.22C439.88,514.88,432,536.63,432,562a102.45,102.45,0,0,0,3.21,26q.29,1.08.6,2.16c.21.72.42,1.44.65,2.16a87.45,87.45,0,0,0,21,35c17,17.44,37.89,26.29,62.21,26.29,17,0,32.7-2.6,46.6-7.73,12.71-4.69,21.92-9.57,27.4-14.52l-1.15-2.34C591.64,627.11,590.57,624.87,589.43,622.28ZM478.92,542.12A45.26,45.26,0,0,1,485.43,526c6.92-10.66,17.76-16.16,32.19-16.34,7.09,0,13.06,1.4,18.28,4.28A26.47,26.47,0,0,1,547,524.67a64,64,0,0,1,4.33,10.22,25.67,25.67,0,0,1,1.27,7.49v2.13l-74.17.18Z" transform="translate(-147 -390.45)"/><path class="cls-1" d="M666.78,628.85c-15.84-16.17-23.86-37.61-23.86-63.72a123.19,123.19,0,0,1,1.43-19,31.9,31.9,0,0,1-1.2-5.91v-.11c-.11-2.27-.11-4.61-.11-6.87V390.45H588.58V533.22l0,.6c.08,2,.16,4,.37,5.89.63,9.22,6,16.28,11.71,23.76,2.34,3.07,4.77,6.25,6.81,9.57l.13.21.07.23.37,1,.05.12c.24.66.49,1.38.71,2.15a14.22,14.22,0,0,1,.47,2.14,9.32,9.32,0,0,1-.86,5.53,109.27,109.27,0,0,1-5.89,9.43c-6.32,9.38-12.29,18.24-7.4,28.87a54.4,54.4,0,0,0,8,12.76c9.53,11.44,23.29,17.48,40.91,18,11.74.13,25.49-3.08,41.79-9.83A89.56,89.56,0,0,1,666.78,628.85Z" transform="translate(-147 -390.45)"/><path class="cls-1" d="M796.19,623.08a92.68,92.68,0,0,1-5.63-7.53c-5.07-7.29-4.13-14.09-.78-20.21-17.9,5.9-36.38,10.37-55.81,9.56l-.22,0a49,49,0,0,1-7.7-1.74A36.14,36.14,0,0,1,708.28,591c-6-7.54-9-17.1-9-28.42,0-13.14,3.9-24.14,11.58-32.7S729,517,741.73,517a61.39,61.39,0,0,1,23.14,5c2.67,1.1,5.43,2.39,8.21,3.85a46.56,46.56,0,0,1,7,3.74c.46-1.54,1-3.16,1.75-4.93A90.75,90.75,0,0,1,802.69,494l.7-.69c-21.5-14.88-42.89-22.43-63.67-22.43-27.59,0-50.14,8.9-67,26.45s-25.5,40.37-25.5,67.77c0,25,7.62,45.39,22.64,60.74s35.63,24.7,60.94,27.47c25.81,2.54,50.75-4.49,74.22-20.9-.78-.73-1.55-1.48-2.31-2.24C800.38,627.91,798.2,625.51,796.19,623.08Z" transform="translate(-147 -390.45)"/><path class="cls-1" d="M942.08,534l-.11-.32v-.34c0-2.38,0-4.74,0-7.06V505.16a95.17,95.17,0,0,0-7.29-8.1c-17.4-17.24-39.18-26-64.74-26-23,0-43,7.35-59.77,21.86-.55.47-1.09.95-1.63,1.44l-1.59,1.48-1.26,1.21a86.74,86.74,0,0,0-19.84,29.24,45.22,45.22,0,0,0-1.94,5.74c-.19.72-.34,1.42-.47,2.1,0,.05,0,.1,0,.14a20.72,20.72,0,0,0,.49,2.82c1.85,7.47,7.68,12.38,13.8,17.54,4.9,4.13,10,8.4,13.23,14.21,2.21,4.4-.52,8.44-2.32,11.11l-.58.8c-.82.82-1.69,1.67-2.57,2.53-1.07,1-2.15,2.1-3.22,3.18s-2.22,2.27-3.27,3.44-1.86,2.12-2.7,3.21c-4.76,6.18-7.2,12.85-2.22,20,1.66,2.47,3.46,4.89,5.39,7.22s4,4.62,6.22,6.82c.92.93,1.86,1.83,2.81,2.7.53.5,1.07,1,1.61,1.46s1.09,1,1.65,1.43c16.39,13.86,35.92,20.89,58.16,20.89,25.57,0,47.36-8.42,64.77-25a86.31,86.31,0,0,0,7.26-7.84v-2.25c0-1.94,0-3.85.15-5.88l0-.35.14-.33C952.14,588.58,952.09,563.78,942.08,534Zm-46.6,67.39c-4.81,1.56-9.35,3-13.33,4.68l-.3.1a46,46,0,0,1-5.87,1.08,52.29,52.29,0,0,1-6.23.37c-11.45,0-21.43-4.63-29.68-13.75h0c-8.25-9.13-12.43-19.62-12.43-31.21s4.19-22.09,12.44-31S858.36,518,869.75,518a44.77,44.77,0,0,1,17.52,3.3,37.64,37.64,0,0,1,5,2.59l.16.11c2.2,1.64,4.3,3.34,6.25,5s3.9,3.51,6,5.61l.13.13c3.2,3.82,7.69,7.21,12,10.5,8.76,6.64,17.82,13.51,17.82,24.62C933.93,588.84,913.51,595.48,895.48,601.35Z" transform="translate(-147 -390.45)"/><path class="cls-1" d="M1216.17,562c0-17.52,3.65-33.41,10.88-47.49a70.41,70.41,0,0,0-11.34-23c-10.44-13.65-27.32-20.58-50.16-20.58-27.13,0-47.83,9.39-61.52,27.91l-1.92,2.6-1.63-2.79c-10.87-18.65-28-27.72-52.36-27.72-21.43,0-37.23,6.64-47,19.72L997.87,495l-2-20.28H946.21v51.48q0,3.3,0,6.69c10.21,30.58,10.24,56.14.1,80.4,0,.57-.05,1.14-.07,1.71,0,1.18,0,2.35,0,3.53V651h51.11V633.36c0-1.93,0-3.92,0-6-1.27-10.65,4-18.83,9.12-26.74,4-6.24,7.82-12.14,8.2-18.87,0-5.72-3.6-10.73-7.38-16-4.9-6.87-10.45-14.67-7.77-24.84a49.41,49.41,0,0,1,2.79-8.26c5.69-12.8,16.27-19.3,31.43-19.3,15,0,24.41,7.79,28.11,23.16.38,1.58.7,3.22,1.05,5,.16.84.33,1.69.52,2.57,3.9,6.48,9.06,11.83,14.53,17.5a132.57,132.57,0,0,1,12.89,14.76c3.11,3.82,4.4,7.44,4,11.08-.84,6.81-7.63,11.86-14.82,17.2-7,5.19-14.22,10.57-15.93,17.52a25.15,25.15,0,0,1-.41,5.58V651h50.94v-18.5c0-1.93,0-4.11.09-6.37l0-.24c1.86-11.72,10.2-17.86,18.27-23.81,5.85-4.31,11.37-8.38,14.76-14.48.23-.46.1-1.89-.8-3.77-3.5-4.31-8.18-7.72-12.7-11-8.49-6.18-17.26-12.57-18.85-25.1l0-.21,0-.21a49.81,49.81,0,0,1,1.63-9.46c1.59-6,5.18-11.49,11-16.75s13.35-7.75,22.84-7.75c16.32,0,26,9.56,28.62,28.42.11.75.2,1.51.3,2.3.13,1,.26,2.11.43,3.21,1.88,8.68,9.13,14.1,16.14,19.34,6.65,5,13.51,10.1,15.74,18,3.13,9.51-5.3,14.89-13.45,20.1-4.65,3-9.47,6-12.44,9.91-3.25,4.07-6.3,7.87-5.87,12.55v.25c-.09,3.65-.09,7.12-.09,10.18V651h51l.06-19.3c0-1.78,0-3.64.07-5.56a15.83,15.83,0,0,1,1.68-7.89C1221.81,602.26,1216.17,583.39,1216.17,562Z" transform="translate(-147 -390.45)"/><path class="cls-1" d="M1404.09,544.7c-8.47-6.18-19-13.87-22.3-25.42-.7-1.86-1.45-3.7-2.24-5.47a94.55,94.55,0,0,0-5.34-10.31c-5.71-9.52-14.65-17.41-26.57-23.45-11.74-5.95-26.05-9-42.53-9H1303v-.15c-24,.5-43.89,9.36-59,26.37a91.89,91.89,0,0,0-12.36,17.63c-.5.93-1,1.87-1.45,2.82s-1,2.07-1.46,3.12a100.1,100.1,0,0,0-8.28,41.08c0,19.83,5,37.35,15,52.28.42.63.85,1.25,1.29,1.87s.87,1.23,1.33,1.84a91.4,91.4,0,0,0,7.9,9.27c16.95,17.44,37.88,26.29,62.2,26.29,17,0,32.71-2.6,46.6-7.73,12.72-4.69,21.92-9.57,27.4-14.52L1373,612.92c-1.58-3.24-3.21-6.57-4.49-9.57a23.39,23.39,0,0,1-2.47-7.92c0-.15,0-.29-.08-.44a51.11,51.11,0,0,0-4.5,2.65,36.87,36.87,0,0,1-7.75,4.08c-2.27,1.1-4.48,2.06-6.76,2.92-11.44,4.35-24.31,6.12-38.25,5.27a48.85,48.85,0,0,1-26.21-9.6c-8.3-6-13.31-13.6-14.9-22.6l-.44-2.5h49.23c12.39-3,28.59-1.38,44.26.15,19.77,1.93,40.22,3.92,49.82-4,3.54-2.94,5.51-7.09,6-12.7v-.1C1417.07,554.17,1411.06,549.78,1404.09,544.7Zm-64.82-.29-3.15.05c-2,0-4.75.06-8,.08l-61.2.15.53-2.57a45.43,45.43,0,0,1,6.5-16.14c6.93-10.66,17.76-16.16,32.19-16.34,7.09,0,13.06,1.4,18.28,4.28a26.44,26.44,0,0,1,11.07,10.75c1,1.88,1.85,3.74,2.6,5.54a54.23,54.23,0,0,1,3.29,11.7l.43,2.46Z" transform="translate(-147 -390.45)"/></svg>