<?xml version="1.0" encoding="utf-8"?>
<!-- Generator: Adobe Illustrator 26.0.0, SVG Export Plug-In . SVG Version: 6.00 Build 0)  -->
<svg version="1.1" xmlns="http://www.w3.org/2000/svg" xmlns:xlink="http://www.w3.org/1999/xlink" x="0px" y="0px"
	 viewBox="0 0 2157.22 674.26" style="enable-background:new 0 0 2157.22 674.26;" xml:space="preserve">
<style type="text/css">
	.st0{fill:#FFFFFF;}
	.st1{fill:#FA4715;}
</style>
<g id="图层_1">
	<g>
		<g>
			<g>
				<path class="st0" d="M400.93,302.28c2.29-2.57,4.68-4.97,7.17-7.19l27.22-83.1H379l-32.78,119.74
					c-3.26,10.43,3.69,16.78,11.73,24.12c3.56,3.25,7.23,6.61,9.96,10.42l0.17,0.29c1.08,2.15,1.08,5.02,1.08,6.91v17.3l-4.2-16.78
					c-0.52-2.09-1.96-3.43-3.78-5.13c-0.49-0.46-1-0.94-1.51-1.44c-4.07-3.1-8.66-5.78-13.09-8.38
					c-11.23-6.57-22.85-13.37-26.66-27.31l-29.84-119.74h-48.7l-30.08,119.45c-3.5,11.83,6.08,20.32,15.34,28.53
					c2.33,2.07,4.54,4.02,6.55,6.04c2.33,2.33,2.33,4.71,2.33,7.46v6.16l-3.81-4.84c-5.37-6.83-12.45-11-19.94-15.41
					c-4.96-2.92-10.1-5.95-14.66-9.81c-4.75-3.96-10.7-10.32-12.09-18.18l-32.26-119.39H95.61l37.86,115.35
					c3.61,11.72,13.34,17.78,23.64,24.18c9.76,6.07,19.85,12.35,23.81,23.8c2.41,6.43-4.08,11.75-9.82,16.44
					c-1.88,1.54-3.65,2.99-5.1,4.43c-4.21,4.95-7.02,12.63-3.83,18.68l0.14,0.33l14.2,43.27h45.67l11-40.48
					c0.56-2.04,1.24-4.42,2.29-6.82c1.57-4.98,5.34-8.2,8.98-11.31c1.29-1.1,2.5-2.13,3.59-3.23c4.11-3.77,9.29-6.29,14.3-8.72
					c7.82-3.79,15.2-7.38,16.6-14.85c0.94-5.64-3.85-9.26-9.4-13.44c-2.79-2.1-5.67-4.28-7.98-6.88l-0.14-0.18
					c-5.38-7.54-6.97-15.72-4.37-22.48l8.57-31.53l8.53,31.65c3.3,13.31,14.23,19.46,25.79,25.99c6.74,3.8,13.71,7.73,19.2,13.22
					l0.24,0.24l0.16,0.31c0.95,1.89,1.93,3.85,1.93,6.06v0.45l-0.18,0.41c-2.66,5.99-7.64,10.76-12.44,15.38
					c-8.09,7.77-15.08,14.47-11.07,25.57l0.05,0.17l10.91,40.48h45.84l14.17-43.27c2.08-7.36,6.23-12.57,11.33-16.73
					c-2.52-8.97-3.79-18.55-3.79-28.7C376.3,343.37,384.59,320.67,400.93,302.28z"/>
				<path class="st0" d="M538.04,430.1l-0.05-0.13c-3-8.22-4.92-17.16-5.99-27.94c-3.08,1.25-6.17,2.61-9.39,4.03
					c-7.18,3.16-14.61,6.43-22.55,8.7c-2.43,0.67-4.93,1.24-7.43,1.7c-7.46,1.36-15.48,1.79-23.82,1.28
					c-9.31-0.53-18.13-3.76-26.21-9.6c-8.3-6-13.31-13.61-14.9-22.6l-0.44-2.5h68.55c1.4-0.05,2.78-0.08,4.14-0.11
					c0.94-0.02,1.88-0.05,2.82-0.07c15.09-1.25,29.98-0.91,44.38-0.58c1.62,0.04,3.24,0.07,4.87,0.11
					c-1.84-2.89-4.01-5.75-6.12-8.51c-5.83-7.65-11.85-15.56-12.57-25.97c-0.22-1.97-0.3-4.07-0.38-6.1l-0.03-0.68l0-32.03
					c-5.73-8.53-14.18-15.66-25.15-21.23c-11.74-5.95-26.05-8.97-42.53-8.97h-2.13v-0.15c-20.17,0.41-37.39,6.72-51.34,18.78
					c-1.09,0.94-2.15,1.91-3.2,2.92c-1.15,1.11-2.27,2.26-3.37,3.45c-0.37,0.4-0.74,0.8-1.1,1.21
					c-15.63,17.58-23.55,39.33-23.55,64.66c0,9.16,1.07,17.82,3.21,25.97c0.19,0.73,0.39,1.45,0.6,2.17
					c0.21,0.72,0.43,1.44,0.65,2.15c4.15,13.12,11.17,24.82,21.04,34.97c16.95,17.44,37.88,26.29,62.2,26.29
					c17.02,0,32.7-2.6,46.6-7.73c12.71-4.69,21.92-9.57,27.4-14.52l-1.15-2.34C540.25,434.93,539.19,432.69,538.04,430.1z
					 M427.53,349.94c1.26-6.13,3.45-11.56,6.5-16.14c6.93-10.66,17.76-16.16,32.19-16.34c7.09,0,13.06,1.4,18.28,4.28
					c5.08,2.8,8.81,6.42,11.06,10.75c1.85,3.55,3.35,7.08,4.33,10.22c0.83,2.65,1.27,5.25,1.27,7.49v2.12l-74.16,0.18L427.53,349.94
					z"/>
				<path class="st0" d="M615.39,436.67c-15.83-16.17-23.86-37.61-23.86-63.72c0-6.6,0.48-12.94,1.44-19.02
					c-0.57-1.88-0.99-3.84-1.2-5.91l-0.01-0.12c-0.11-2.27-0.11-4.61-0.11-6.87V198.27h-54.45v109.55v4.14v4.47v24.61l0.03,0.6
					c0.08,2.05,0.16,3.98,0.37,5.89c0.64,9.22,6.02,16.28,11.71,23.76c2.34,3.08,4.76,6.25,6.81,9.57l0.13,0.21l0.08,0.23
					c0.11,0.33,0.24,0.68,0.37,1.05c0.01,0.04,0.03,0.08,0.05,0.12c0.24,0.66,0.5,1.38,0.72,2.14c0.2,0.68,0.36,1.39,0.46,2.14
					c0.23,1.73,0.11,3.61-0.86,5.54c-1.73,3.24-3.84,6.38-5.89,9.42c-6.32,9.38-12.29,18.25-7.4,28.87
					c1.03,2.29,2.23,4.53,3.57,6.68c1.33,2.11,2.83,4.15,4.43,6.08c9.53,11.44,23.3,17.48,40.91,17.97
					c11.75,0.13,25.49-3.08,41.79-9.83C627.41,447.39,621.04,442.44,615.39,436.67z"/>
			</g>
			<g>
				<path class="st0" d="M744.8,430.9c-2.02-2.44-3.91-4.97-5.63-7.53c-5.07-7.29-4.13-14.1-0.78-20.21
					c-17.9,5.9-36.38,10.37-55.81,9.56l-0.22-0.02c-2.7-0.39-5.29-0.98-7.7-1.74c-7.28-2.32-13.26-6.39-17.77-12.09
					c-5.97-7.54-8.99-17.11-8.99-28.42c0-13.14,3.9-24.14,11.59-32.7c7.7-8.57,18.08-12.92,30.86-12.92c7.19,0,14.97,1.7,23.14,5.05
					c2.67,1.1,5.43,2.39,8.21,3.84c2.57,1.06,4.87,2.37,7.06,3.74c0.45-1.54,1.03-3.16,1.75-4.93c4.61-11.33,11.61-21.66,20.8-30.68
					c0.23-0.23,0.47-0.46,0.7-0.68c-21.5-14.89-42.89-22.43-63.67-22.43c-27.59,0-50.15,8.9-67.05,26.45
					c-16.92,17.57-25.5,40.37-25.5,67.77c0,24.95,7.62,45.39,22.64,60.74c15.13,15.46,35.63,24.7,60.94,27.47
					c25.81,2.54,50.76-4.49,74.22-20.91c-0.77-0.73-1.54-1.47-2.3-2.23C748.99,435.72,746.81,433.33,744.8,430.9z"/>
				<path class="st0" d="M890.69,341.78l-0.11-0.32l0-0.34c-0.02-2.38-0.02-4.74-0.02-7.06v-21.08c-2.24-2.8-4.67-5.5-7.29-8.1
					c-17.4-17.24-39.18-25.98-64.74-25.98c-22.97,0-43.05,7.35-59.77,21.86c-0.55,0.47-1.09,0.96-1.63,1.45
					c-0.53,0.48-1.06,0.98-1.59,1.48c-0.42,0.4-0.84,0.8-1.26,1.21c-8.78,8.62-15.45,18.45-19.84,29.25
					c-0.86,2.12-1.49,3.99-1.94,5.74c-0.18,0.72-0.34,1.42-0.46,2.1c0,0.05,0.01,0.09,0.02,0.14c0.1,0.98,0.27,1.92,0.49,2.82
					c1.85,7.47,7.67,12.38,13.8,17.54c4.9,4.13,9.97,8.4,13.23,14.21c2.2,4.4-0.52,8.44-2.32,11.12l-0.58,0.8
					c-0.82,0.82-1.69,1.67-2.57,2.53c-1.07,1.04-2.15,2.1-3.22,3.17c-1.12,1.13-2.23,2.28-3.28,3.44c-0.95,1.05-1.86,2.12-2.69,3.21
					c-4.77,6.19-7.21,12.86-2.23,20.02c1.66,2.47,3.47,4.89,5.39,7.22c1.92,2.33,4.02,4.62,6.22,6.82c0.93,0.93,1.86,1.83,2.81,2.7
					c0.53,0.49,1.07,0.98,1.61,1.46c0.55,0.48,1.09,0.96,1.65,1.43c16.39,13.87,35.92,20.89,58.16,20.89
					c25.57,0,47.37-8.41,64.77-25.01c2.6-2.48,5.03-5.11,7.26-7.84v-2.25c0-1.94,0.01-3.86,0.15-5.88l0.02-0.36l0.14-0.33
					C900.76,396.4,900.7,371.6,890.69,341.78z M844.1,409.16c-4.81,1.57-9.36,3.04-13.34,4.69l-0.29,0.1
					c-1.92,0.48-3.89,0.85-5.87,1.08c-2,0.24-4.09,0.36-6.23,0.36c-11.45,0-21.44-4.63-29.68-13.75v0
					c-8.25-9.12-12.43-19.62-12.43-31.2c0-11.65,4.19-22.09,12.44-31.05c8.3-9,18.28-13.57,29.67-13.57c6.45,0,12.34,1.11,17.52,3.3
					c1.74,0.74,3.43,1.61,5.01,2.59l0.16,0.11c2.2,1.65,4.3,3.34,6.25,5.03c1.93,1.68,3.9,3.51,6,5.61l0.13,0.14
					c3.21,3.81,7.69,7.21,12.02,10.5c8.76,6.64,17.82,13.51,17.82,24.62C882.55,396.65,862.12,403.3,844.1,409.16z"/>
				<path class="st0" d="M1164.78,369.77c0-17.52,3.65-33.42,10.89-47.5c-2.63-8.84-6.42-16.53-11.34-22.97
					c-10.44-13.65-27.32-20.58-50.16-20.58c-27.13,0-47.83,9.39-61.52,27.91l-1.92,2.6l-1.63-2.8
					c-10.86-18.65-27.99-27.71-52.36-27.71c-21.43,0-37.24,6.63-46.97,19.72l-3.28,4.41l-2.03-20.28h-49.64v28.92v3.54v3.74v15.28
					c0,2.2,0,4.43,0.02,6.69c10.2,30.58,10.23,56.14,0.1,80.4c-0.03,0.57-0.06,1.14-0.07,1.71c-0.04,1.18-0.04,2.35-0.04,3.53v0.22
					v3.53v28.67h51.11v-17.63c0-1.92,0-3.92,0.03-5.99c-1.26-10.65,4.01-18.83,9.12-26.74c4.02-6.24,7.83-12.13,8.2-18.86
					c-0.02-5.72-3.59-10.73-7.38-16.04c-4.9-6.88-10.45-14.67-7.77-24.84c0.73-2.96,1.67-5.75,2.79-8.26
					c5.7-12.81,16.27-19.3,31.43-19.3c14.96,0,24.41,7.79,28.11,23.16c0.38,1.58,0.71,3.23,1.05,4.97c0.17,0.83,0.33,1.69,0.52,2.57
					c3.9,6.48,9.07,11.83,14.54,17.5c4.43,4.59,9.01,9.33,12.89,14.76c3.11,3.82,4.4,7.44,3.95,11.08
					c-0.84,6.81-7.63,11.85-14.82,17.19c-7,5.2-14.23,10.57-15.93,17.53c0,2.14-0.05,4.16-0.41,5.58v23.34h50.94v-18.5
					c0-1.93,0-4.11,0.09-6.36l0.02-0.25c1.86-11.72,10.2-17.86,18.27-23.8c5.85-4.31,11.38-8.38,14.76-14.48
					c0.23-0.47,0.1-1.89-0.8-3.77c-3.51-4.31-8.18-7.72-12.71-11.02c-8.49-6.18-17.26-12.57-18.85-25.11l-0.03-0.21l0.01-0.21
					c0.21-3.03,0.75-6.12,1.63-9.45c1.59-6.01,5.19-11.49,11-16.76c5.67-5.14,13.36-7.74,22.84-7.74c16.32,0,25.95,9.56,28.62,28.41
					c0.11,0.75,0.2,1.52,0.3,2.3c0.13,1.04,0.26,2.11,0.43,3.21c1.88,8.68,9.13,14.1,16.14,19.34c6.64,4.96,13.51,10.1,15.73,18.01
					c3.13,9.51-5.29,14.89-13.44,20.09c-4.66,2.97-9.47,6.05-12.44,9.91c-3.25,4.06-6.3,7.87-5.87,12.55l0.01,0.12l0,0.12
					c-0.09,3.66-0.09,7.12-0.09,10.18v13.39h50.95l0.06-19.3c0.01-1.78,0.01-3.64,0.06-5.56c-0.16-2.89,0.53-5.49,1.68-7.88
					C1170.43,410.08,1164.78,391.21,1164.78,369.77z"/>
				<path class="st0" d="M1352.7,352.52c-8.47-6.18-19.01-13.87-22.3-25.42c-0.7-1.86-1.45-3.69-2.24-5.46
					c-1.59-3.58-3.39-7.05-5.34-10.31c-5.71-9.52-14.65-17.41-26.57-23.45c-11.74-5.95-26.05-8.97-42.53-8.97h-2.13v-0.15
					c-24.04,0.49-43.89,9.35-59.01,26.36c-4.87,5.48-8.99,11.36-12.36,17.63c-0.5,0.93-0.98,1.87-1.45,2.82
					c-0.51,1.03-1,2.07-1.46,3.11c-5.51,12.36-8.28,26.1-8.28,41.09c0,19.83,5.03,37.34,14.97,52.28c0.42,0.63,0.85,1.25,1.28,1.87
					c0.43,0.62,0.88,1.23,1.33,1.84c2.39,3.22,5.03,6.31,7.9,9.27c16.95,17.44,37.88,26.29,62.2,26.29c17.02,0,32.7-2.6,46.6-7.73
					c12.71-4.69,21.92-9.57,27.4-14.52l-9.16-18.33c-1.58-3.24-3.21-6.58-4.49-9.57c-1.57-2.79-2.05-5.51-2.48-7.92
					c-0.03-0.15-0.05-0.3-0.08-0.44c-1.49,0.74-2.97,1.67-4.5,2.64c-2.42,1.53-4.91,3.11-7.75,4.09c-2.27,1.1-4.48,2.06-6.76,2.92
					c-11.44,4.35-24.31,6.12-38.25,5.27c-9.31-0.53-18.13-3.76-26.21-9.6c-8.3-6-13.31-13.61-14.9-22.6l-0.44-2.5h49.23
					c12.39-2.96,28.59-1.38,44.26,0.15c19.78,1.93,40.22,3.92,49.82-4.02c3.54-2.93,5.51-7.08,6.02-12.69l0.01-0.11
					C1365.69,361.99,1359.67,357.6,1352.7,352.52z M1287.88,352.23c0,0-1.16,0.02-3.15,0.05c-1.98,0.03-4.76,0.06-8.06,0.08
					l-61.2,0.15l0.53-2.57c1.26-6.13,3.45-11.56,6.5-16.14c6.93-10.66,17.76-16.16,32.19-16.34c7.09,0,13.06,1.4,18.28,4.28
					c5.08,2.8,8.81,6.42,11.06,10.75c0.98,1.88,1.86,3.74,2.61,5.54c1.53,3.76,2.48,7.14,3.29,11.7l0.43,2.45L1287.88,352.23z"/>
			</g>
		</g>
		<g>
			<path class="st0" d="M1153.18,342.27c-1.53,0-2.76-1.15-2.85-2.69l-1.79-30.24c-0.91-15.52-13.31-27.84-28.83-28.67l-18.72-1.02
				c-1.54-0.08-2.7-1.31-2.7-2.85c0-1.54,1.16-2.77,2.7-2.85l18.72-1.01c15.52-0.85,27.91-13.18,28.83-28.69l1.79-30.24
				c0.09-1.53,1.32-2.69,2.85-2.69c1.54,0,2.76,1.15,2.85,2.69l1.79,30.24c0.91,15.51,13.31,27.84,28.83,28.69l18.71,1.01
				c1.54,0.08,2.7,1.31,2.7,2.85c0,1.54-1.16,2.77-2.7,2.85l-18.72,1.01c-15.52,0.83-27.91,13.16-28.83,28.68l-1.79,30.24
				C1155.94,341.11,1154.71,342.27,1153.18,342.27z"/>
			<g>
				<path class="st1" d="M1153.18,212.92c0.6,0,1.21,0.39,1.26,1.18l1.79,30.24c0.96,16.32,14.02,29.3,30.34,30.19l18.72,1.01
					c1.59,0.09,1.59,2.43,0,2.51l-18.72,1.02c-16.32,0.87-29.38,13.87-30.34,30.18l-1.79,30.24c-0.05,0.79-0.65,1.18-1.26,1.18
					c-0.6,0-1.21-0.39-1.26-1.18l-1.79-30.24c-0.96-16.3-14.02-29.3-30.34-30.18l-18.72-1.02c-1.59-0.09-1.59-2.43,0-2.51
					l18.72-1.01c16.32-0.89,29.38-13.87,30.34-30.19l1.79-30.24C1151.97,213.32,1152.57,212.92,1153.18,212.92 M1153.18,209.73
					c-2.39,0-4.3,1.8-4.45,4.19l-1.79,30.24c-0.87,14.7-12.61,26.39-27.32,27.19l-18.71,1.01c-2.4,0.13-4.21,2.04-4.21,4.45
					c0,2.4,1.81,4.32,4.21,4.45l18.72,1.02c14.71,0.79,26.45,12.47,27.32,27.17l1.79,30.24c0.14,2.39,2.05,4.19,4.45,4.19
					c2.39,0,4.3-1.8,4.45-4.19l1.79-30.24c0.87-14.7,12.61-26.39,27.32-27.17l18.72-1.02c2.4-0.13,4.21-2.04,4.21-4.45
					s-1.81-4.32-4.21-4.45l-18.72-1.01c-14.71-0.8-26.45-12.49-27.32-27.19l-1.79-30.24
					C1157.48,211.53,1155.57,209.73,1153.18,209.73L1153.18,209.73z"/>
			</g>
		</g>
		<g>
			<path class="st0" d="M1239.09,224.94c-1.27,0-2.29-0.96-2.36-2.23l-1.09-18.52c-0.54-9.19-7.88-16.49-17.07-16.98l-11.46-0.62
				c-1.28-0.07-2.24-1.09-2.24-2.36c0-1.28,0.96-2.3,2.24-2.36l11.46-0.62c9.19-0.5,16.53-7.8,17.07-16.99l1.09-18.52
				c0.08-1.27,1.09-2.23,2.36-2.23c1.27,0,2.29,0.96,2.36,2.23l1.09,18.52c0.54,9.18,7.88,16.49,17.07,16.99l11.46,0.62
				c1.28,0.07,2.24,1.09,2.24,2.36c0,1.28-0.96,2.3-2.24,2.36l-11.46,0.62c-9.19,0.49-16.53,7.79-17.07,16.98l-1.09,18.52
				C1241.38,223.98,1240.36,224.94,1239.09,224.94z"/>
			<g>
				<path class="st1" d="M1239.09,145.11c0.37,0,0.74,0.24,0.77,0.72l1.09,18.52c0.59,9.99,8.58,17.95,18.58,18.49l11.46,0.62
					c0.97,0.05,0.97,1.49,0,1.54l-11.46,0.62c-9.99,0.53-17.99,8.5-18.58,18.48l-1.09,18.52c-0.03,0.48-0.4,0.72-0.77,0.72
					c-0.37,0-0.74-0.24-0.77-0.72l-1.09-18.52c-0.59-9.98-8.58-17.95-18.58-18.48l-11.46-0.62c-0.97-0.05-0.97-1.49,0-1.54
					l11.46-0.62c9.99-0.54,17.99-8.5,18.58-18.49l1.09-18.52C1238.35,145.35,1238.72,145.11,1239.09,145.11 M1239.09,141.92
					c-2.13,0-3.83,1.6-3.96,3.73l-1.09,18.52c-0.49,8.37-7.18,15.03-15.56,15.49l-11.46,0.62c-2.14,0.12-3.75,1.82-3.75,3.96
					c0,2.14,1.61,3.84,3.75,3.96l11.46,0.62c8.38,0.45,15.07,7.1,15.56,15.48l1.09,18.52c0.13,2.13,1.83,3.73,3.96,3.73
					c2.13,0,3.83-1.6,3.96-3.73l1.09-18.52c0.49-8.38,7.18-15.03,15.56-15.48l11.46-0.62c2.14-0.12,3.75-1.82,3.75-3.96
					c0-2.14-1.61-3.84-3.75-3.96l-11.46-0.62c-8.38-0.46-15.07-7.11-15.56-15.49l-1.09-18.52
					C1242.92,143.52,1241.22,141.92,1239.09,141.92L1239.09,141.92z"/>
			</g>
		</g>
	</g>
</g>
<g id="图层_2">
	<g>
		<g>
			<path class="st1" d="M1948.01,272.53v23.01l73.06,73.07h-475.15v-1.04c-0.8,0-1.61-0.01-2.42-0.02
				c-3.53-0.06-7.09-0.2-10.69-0.48c-35.09-2.66-73.89-17.41-119.53-78.5c-19.85-26.59-42.26-40.06-66.6-40.06
				c-1.48,0-2.99,0.05-4.48,0.15c-35.23,2.34-70.89,32.79-100.42,85.72c-3.31,5.92-6.99,12.02-11.07,18.1
				c-13.52,20.17-31.41,40.27-54.36,54.09c-18.12,10.92-39.4,17.91-64.18,17.91c-24.24,0-50.45-6.67-77.93-19.86
				c-24.39-11.69-49.63-20.46-74.91-26.09c-19.26-4.29-38.55-6.76-57.52-7.33c-1.43-0.05-2.87-0.08-4.3-0.11
				c-1.42-0.02-2.83-0.03-4.24-0.03c-3.7,0-7.41,0.08-11.11,0.23c-7.57,0.29-15.11,0.89-22.5,1.8
				c-44.6,5.42-86.36,21.27-124.71,47.29c-0.3,0.2-0.59,0.4-0.89,0.6c-0.15-0.32-0.31-0.65-0.46-0.97
				c-5.41-11.41-11.41-22.61-17.93-33.38c-29.6-48.83-68-86.48-111.04-108.85c-131.04-68.12-146.15-89.15-169.53-175.11l-18.5,5.01
				c12.86,47.26,24.15,76.28,49.51,103.07c26.05,27.51,65.67,50.76,129.68,84.04c54.7,28.43,96.71,81.45,122.18,136.59
				c0.16,0.33,0.31,0.66,0.46,0.99c-0.28,0.22-0.57,0.44-0.85,0.67c-9.36,7.3-18.5,15.24-27.42,23.81
				c-51.28,49.33-49.24,88.42-43.46,107.32c7.11,23.32,27.28,41.2,51.55,45.84l1.05,0.18l0.18-1.06l-2.1-0.37
				c-23.39-4.88-42.77-22.3-49.67-44.89c-5.7-18.67-7.68-57.31,43.19-106.25c8.82-8.49,17.87-16.35,27.13-23.59
				c0.57-0.45,1.14-0.89,1.71-1.34c4.58-3.53,9.21-6.9,13.89-10.12c0.59-0.42,1.19-0.82,1.78-1.22
				c38.26-25.97,79.91-41.8,124.38-47.21c7.47-0.9,15.07-1.51,22.72-1.8c3.57-0.14,7.18-0.21,10.76-0.21c1.45,0,2.91,0.01,4.36,0.03
				c1.44,0.02,2.86,0.05,4.3,0.11c19.2,0.57,38.72,3.09,58.15,7.48c1.19,0.26,2.39,0.53,3.58,0.82
				c23.63,5.62,47.22,14.03,70.12,25.01c27.62,13.25,53.99,19.97,78.39,19.97c23.09,0,44.78-6.1,64.65-18.03
				c20.49-12.27,39.04-30.74,55.19-55.05c3.7-5.55,7.27-11.42,10.71-17.57c29.34-52.61,64.7-82.85,99.54-85.17
				c1.48-0.1,2.97-0.15,4.42-0.15c23.99,0,46.11,13.33,65.75,39.62c45.93,61.49,85.02,76.3,120.38,78.94
				c0.36,0.03,0.71,0.05,1.06,0.08v16.45c-0.36-0.02-0.71-0.04-1.06-0.05c-23.21-1.04-38.33-5.1-56.8-14.53
				c-26.58-13.58-51.85-36.71-77.24-70.69c-16.24-21.75-33.83-32.77-52.29-32.77c-1.02,0-2.05,0.03-3.09,0.11
				c-28.46,1.88-59.74,29.75-85.79,76.47c-1.76,3.14-3.55,6.22-5.39,9.22c-6.78,11.15-14.11,21.37-21.92,30.61
				c-3.54,4.19-7.18,8.17-10.93,11.96c-10.93,11.07-22.64,20.32-34.95,27.58c-5.05,2.98-10.19,5.62-15.43,7.92
				c-18.06,7.93-37.35,11.95-57.32,11.95c-26.83,0-55.51-7.23-85.25-21.5c-21.61-10.35-43.35-18.2-65.07-23.5
				c-19.71-4.81-39.42-7.52-59-8.1c-1.43-0.05-2.85-0.08-4.27-0.1c-1.28-0.02-2.56-0.03-3.84-0.03c-4.94,0-9.86,0.14-14.75,0.42
				c-48.8,2.72-95.29,18.97-137.04,47.72c-0.59,0.41-1.19,0.83-1.78,1.25c-4.73,3.3-9.39,6.76-13.98,10.39
				c-0.58,0.45-1.16,0.91-1.74,1.38c-7.59,6.07-15,12.58-22.22,19.52c-32.85,31.59-46.58,63.2-38.7,88.99
				c5.04,16.51,19.16,29.3,36.3,33.07l2.1,0.37l2.1,0.36c1.92,0.25,3.83,0.37,5.69,0.37c9.42,0,17.86-3.1,24.41-8.98
				c10.62-9.53,14.6-33.78,10.67-64.89c-2.72-21.48-8.75-44.75-17.81-68.12c4.6-3.66,9.27-7.14,13.99-10.46
				c10.45,25.88,17.65,52.17,20.72,76.45c4.78,37.74-0.97,66.05-16.19,79.7c-9.58,8.6-22.35,13.33-35.95,13.33
				c-2.8,0-5.64-0.2-8.47-0.6l-2.09-0.36l-0.19,1.06v0.01l1.05,0.18c3.23,0.51,6.49,0.77,9.7,0.77c13.87,0,26.88-4.83,36.66-13.6
				c15.49-13.89,21.36-42.53,16.54-80.63c-3.09-24.43-10.36-50.9-20.88-76.94c-0.13-0.33-0.27-0.66-0.4-0.99
				c0.3-0.21,0.59-0.41,0.89-0.61c41.4-28.56,87.48-44.78,135.83-47.64c5.16-0.3,10.33-0.45,15.54-0.45c1.26,0,2.51,0.01,3.77,0.03
				c1.42,0.01,2.84,0.04,4.27,0.09c19.47,0.58,39.05,3.26,58.63,8.03c21.73,5.28,43.45,13.11,65.05,23.47
				c29.89,14.33,58.73,21.61,85.72,21.61c20.11,0,39.54-4.06,57.73-12.04c5.29-2.32,10.5-4.99,15.6-8.02
				c12.3-7.25,23.99-16.47,34.89-27.5c4.05-4.07,7.97-8.38,11.78-12.93c7.77-9.24,15.05-19.48,21.79-30.62
				c1.73-2.83,3.41-5.73,5.06-8.69c25.88-46.39,56.84-74.06,84.95-75.93c1-0.07,2.02-0.1,3.01-0.1c18.11,0,35.41,10.89,51.44,32.35
				c25.49,34.11,50.88,57.34,77.61,70.99c18.63,9.52,33.88,13.6,57.28,14.66c0.35,0.02,0.7,0.04,1.06,0.05
				c2.71,0.11,5.52,0.18,8.46,0.21c1.17,0.02,2.37,0.03,3.59,0.03v-1.09h514.44L1948.01,272.53z M718.83,430.72
				c-25.58-55.26-67.71-108.37-122.55-136.88c-63.9-33.22-103.45-56.41-129.4-83.82c-25.02-26.44-36.27-55.11-48.97-101.58
				l16.45-4.46c23.32,85.49,38.87,106.69,169.78,174.75c42.87,22.28,81.12,59.79,110.62,108.46c6.54,10.78,12.55,22,17.95,33.43
				C728.03,423.83,723.4,427.2,718.83,430.72z M744.23,519.32c3.89,30.76,0.03,54.67-10.32,63.96c-6.36,5.7-14.55,8.72-23.7,8.72
				c-2.14,0-4.35-0.17-6.56-0.51l-1.05-0.18l-1.05-0.18c-17.22-3.41-31.48-16.08-36.52-32.55c-7.76-25.4,5.89-56.62,38.42-87.92
				c7.11-6.83,14.41-13.24,21.89-19.23c0.29-0.24,0.58-0.47,0.87-0.7c0.13,0.34,0.27,0.69,0.4,1.03
				C735.56,474.94,741.53,498.02,744.23,519.32z"/>
			<path class="st1" d="M1533.87,368.22v16.45c-0.36-0.02-0.71-0.04-1.06-0.05c-23.21-1.04-38.33-5.1-56.8-14.53
				c-26.58-13.58-51.85-36.71-77.24-70.69c-16.24-21.75-33.83-32.77-52.29-32.77c-1.02,0-2.05,0.03-3.09,0.11
				c-28.46,1.88-59.74,29.75-85.79,76.47c-1.76,3.14-3.55,6.22-5.39,9.22c-6.78,11.15-14.11,21.37-21.92,30.61
				c-3.54,4.19-7.18,8.17-10.93,11.96c-10.93,11.07-22.64,20.32-34.95,27.58c-5.05,2.98-10.19,5.62-15.43,7.92
				c-18.06,7.93-37.35,11.95-57.32,11.95c-26.83,0-55.51-7.23-85.25-21.5c-21.61-10.35-43.35-18.2-65.07-23.5
				c-19.71-4.81-39.42-7.52-59-8.1c-1.43-0.05-2.85-0.08-4.27-0.1c-1.28-0.02-2.56-0.03-3.84-0.03c-4.94,0-9.86,0.14-14.75,0.42
				c-48.8,2.72-95.29,18.97-137.04,47.72c-0.59,0.41-1.19,0.83-1.78,1.25c-4.73,3.3-9.39,6.76-13.98,10.39
				c-0.58,0.45-1.16,0.91-1.74,1.38c-7.59,6.07-15,12.58-22.22,19.52c-32.85,31.59-46.58,63.2-38.7,88.99
				c5.04,16.51,19.16,29.3,36.3,33.07l2.1,0.37l2.1,0.36c1.92,0.25,3.83,0.37,5.69,0.37c9.42,0,17.86-3.1,24.41-8.98
				c10.62-9.53,14.6-33.78,10.67-64.89c-2.72-21.48-8.75-44.75-17.81-68.12c4.6-3.66,9.27-7.14,13.99-10.46
				c10.45,25.88,17.65,52.17,20.72,76.45c4.78,37.74-0.97,66.05-16.19,79.7c-9.58,8.6-22.35,13.33-35.95,13.33
				c-2.8,0-5.64-0.2-8.47-0.6l-2.09-0.36l-0.19,1.06l0.18-1.06l-2.1-0.37c-23.39-4.88-42.77-22.3-49.67-44.89
				c-5.7-18.67-7.68-57.31,43.19-106.25c8.82-8.49,17.87-16.35,27.13-23.59c0.57-0.45,1.14-0.89,1.71-1.34
				c4.58-3.53,9.21-6.9,13.89-10.12c0.59-0.42,1.19-0.82,1.78-1.22c38.26-25.97,79.91-41.8,124.38-47.21
				c7.47-0.9,15.07-1.51,22.72-1.8c3.57-0.14,7.18-0.21,10.76-0.21c1.45,0,2.91,0.01,4.36,0.03c1.44,0.02,2.86,0.05,4.3,0.11
				c19.2,0.57,38.72,3.09,58.15,7.48c1.19,0.26,2.39,0.53,3.58,0.82c23.63,5.62,47.22,14.03,70.12,25.01
				c27.62,13.25,53.99,19.97,78.39,19.97c23.09,0,44.78-6.1,64.65-18.03c20.49-12.27,39.04-30.74,55.19-55.05
				c3.7-5.55,7.27-11.42,10.71-17.57c29.34-52.61,64.7-82.85,99.54-85.17c1.48-0.1,2.97-0.15,4.42-0.15
				c23.99,0,46.11,13.33,65.75,39.62c45.93,61.49,85.02,76.3,120.38,78.94C1533.17,368.17,1533.52,368.19,1533.87,368.22z"/>
			<path class="st1" d="M732.71,420.62c-4.68,3.21-9.31,6.58-13.88,10.1c-25.58-55.26-67.71-108.37-122.55-136.88
				c-63.9-33.22-103.45-56.41-129.4-83.82c-25.02-26.44-36.27-55.11-48.97-101.58l16.45-4.46
				c23.32,85.49,38.87,106.69,169.78,174.75c42.87,22.28,81.12,59.79,110.62,108.46C721.3,397.97,727.31,409.19,732.71,420.62z"/>
		</g>
		<g>
			<path class="st1" d="M1946.94,269.95v26.03l71.57,71.57h-484.64v18.4h529.07L1946.94,269.95z M1542.04,384.89
				c-2.45-0.05-4.81-0.1-7.1-0.18v-16.1h486.13l-73.06-73.07v-23.01l112.35,112.36H1542.04z"/>
		</g>
		<path class="st0" d="M2065.51,387.02h-523.75c-3.11-0.05-6.1-0.14-8.95-0.27c-24.03-1.09-39.4-5.38-57.77-14.77
			c-26.88-13.73-52.39-37.06-77.97-71.3c-15.84-21.2-32.84-31.92-50.59-31.92c-0.98,0-1.96,0.03-2.94,0.1
			c-27.74,1.84-58.39,29.32-84.08,75.38c-1.54,2.78-3.13,5.5-4.75,8.18c-6.7,11.13-13.94,21.35-21.65,30.62
			c-4.06,4.89-8.27,9.53-12.61,13.87c-10.89,10.98-22.56,20.18-34.83,27.43c-5.15,3.05-10.43,5.76-15.78,8.11
			c-18.43,8.09-37.85,12.13-58.17,12.13h-0.01c-27.2,0-56.01-7.24-86.17-21.71c-21.67-10.4-43.43-18.19-65.06-23.43
			c-19.56-4.75-39.02-7.39-58.23-7.97c-1.43-0.04-2.86-0.07-4.28-0.08c-1.23-0.03-2.46-0.04-3.69-0.04c-5.5,0-10.98,0.18-16.43,0.52
			c-47.6,2.98-93.22,18.92-134.54,47.5c-0.3,0.2-0.59,0.41-0.89,0.61c-0.3,0.21-0.6,0.42-0.9,0.63c-4.72,3.32-9.39,6.8-13.99,10.46
			c-0.29,0.23-0.58,0.45-0.87,0.69c-0.29,0.22-0.58,0.46-0.87,0.69c-7.35,5.9-14.53,12.23-21.55,18.98
			c-32.23,31.02-45.78,61.85-38.14,86.83c5.02,16.43,19.44,28.99,36.73,32.02l-0.18,1.03l-0.18,1.02l-2.1-0.37
			c-17.14-3.77-31.26-16.56-36.3-33.07c-7.88-25.79,5.85-57.4,38.7-88.99c7.22-6.94,14.63-13.45,22.22-19.52
			c0.58-0.47,1.16-0.93,1.74-1.38c4.59-3.63,9.25-7.09,13.98-10.39c0.59-0.42,1.19-0.84,1.78-1.25
			c41.75-28.75,88.24-45,137.04-47.72c4.89-0.28,9.81-0.42,14.75-0.42c1.28,0,2.56,0.01,3.84,0.03c1.42,0.02,2.84,0.05,4.27,0.1
			c19.58,0.58,39.29,3.29,59,8.1c21.72,5.3,43.46,13.15,65.07,23.5c29.74,14.27,58.42,21.5,85.25,21.5
			c19.97,0,39.26-4.02,57.32-11.95c5.24-2.3,10.38-4.94,15.43-7.92c12.31-7.26,24.02-16.51,34.95-27.58
			c3.75-3.79,7.39-7.77,10.93-11.96c7.81-9.24,15.14-19.46,21.92-30.61c1.84-3,3.63-6.08,5.39-9.22
			c26.05-46.72,57.33-74.59,85.79-76.47c1.04-0.08,2.07-0.11,3.09-0.11c18.46,0,36.05,11.02,52.29,32.77
			c25.39,33.98,50.66,57.11,77.24,70.69c18.47,9.43,33.59,13.49,56.8,14.53c0.35,0.01,0.7,0.03,1.06,0.05
			c0.35,0.02,0.71,0.03,1.07,0.04c2.29,0.08,4.65,0.14,7.1,0.18h518.32l-112.35-112.36v23.01l73.06,73.07l0.01,0.01h-477.13
			c-0.17,0-0.33-0.01-0.5-0.01c-3.17-0.05-6.35-0.18-9.58-0.39c-0.35-0.03-0.7-0.05-1.06-0.08c-35.36-2.64-74.45-17.45-120.38-78.94
			c-19.64-26.29-41.76-39.62-65.75-39.62c-1.45,0-2.94,0.05-4.42,0.15c-34.84,2.32-70.2,32.56-99.54,85.17
			c-3.44,6.15-7.01,12.02-10.71,17.57c-16.15,24.31-34.7,42.78-55.19,55.05c-19.87,11.93-41.56,18.03-64.65,18.03
			c-24.4,0-50.77-6.72-78.39-19.97c-22.9-10.98-46.49-19.39-70.12-25.01c-1.19-0.29-2.39-0.56-3.58-0.82
			c-19.43-4.39-38.95-6.91-58.15-7.48c-1.44-0.06-2.86-0.09-4.3-0.11c-1.45-0.02-2.91-0.03-4.36-0.03c-3.58,0-7.19,0.07-10.76,0.21
			c-7.65,0.29-15.25,0.9-22.72,1.8c-44.47,5.41-86.12,21.24-124.38,47.21c-0.59,0.4-1.19,0.8-1.78,1.22
			c-4.68,3.22-9.31,6.59-13.89,10.12c-0.57,0.45-1.14,0.89-1.71,1.34c-9.26,7.24-18.31,15.1-27.13,23.59
			c-50.87,48.94-48.89,87.58-43.19,106.25c6.9,22.59,26.28,40.01,49.67,44.89l2.1,0.37l-0.18,1.06v0.01l-0.19,1.06
			c-25.11-4.39-46.09-22.75-53.43-46.77c-5.85-19.14-7.95-58.68,43.75-108.4c9-8.66,18.23-16.67,27.68-24.04
			c0.29-0.23,0.57-0.45,0.86-0.67c0.29-0.22,0.57-0.44,0.86-0.66c4.57-3.52,9.2-6.89,13.88-10.1c0.29-0.2,0.59-0.41,0.89-0.61
			c0.29-0.2,0.59-0.41,0.89-0.61c38.45-26.05,80.32-41.93,125.03-47.37c7.36-0.89,14.77-1.49,22.24-1.78
			c3.82-0.18,7.67-0.25,11.51-0.25c1.37,0,2.74,0.01,4.1,0.03c1.45,0.02,2.89,0.06,4.33,0.1c18.79,0.54,37.77,2.91,56.75,7.08
			c25.62,5.59,51.22,14.44,76.25,26.46c28.94,13.88,54.67,19.75,77.47,19.75c24.49,0,45.62-6.78,63.77-17.7
			c22.02-13.24,39.63-32.58,53.52-53.24c4.12-6.12,7.91-12.38,11.39-18.62c29.71-53.26,65.67-83.89,101.28-86.26
			c1.52-0.1,3.04-0.15,4.55-0.15c24.71,0,47.38,13.6,67.45,40.48c50.54,67.65,92.44,78.11,130.14,78.56h471.66l-70.05-70.06v-29.04
			L2065.51,387.02z"/>
		<path class="st0" d="M734.95,420.38c-0.15-0.33-0.3-0.65-0.46-0.98c-5.4-11.39-11.39-22.57-17.91-33.32
			c-29.7-49-68.24-86.78-111.45-109.24c-131.18-68.2-145.84-89.03-169.28-175.48l-20.56,5.58c13.03,48.03,24.34,77.39,50.05,104.54
			c26.15,27.63,65.85,50.93,129.96,84.26c54.56,28.36,96.45,81.29,121.81,136.31c0.16,0.33,0.31,0.66,0.47,0.99
			c0.15,0.33,0.3,0.66,0.45,0.99c0.57-0.45,1.14-0.89,1.71-1.34c-0.3-0.66-0.6-1.31-0.91-1.97
			c-25.58-55.26-67.71-108.37-122.55-136.88c-63.9-33.22-103.45-56.41-129.4-83.82c-25.02-26.44-36.27-55.11-48.97-101.58
			l16.45-4.46c23.32,85.49,38.87,106.69,169.78,174.75c42.87,22.28,81.12,59.79,110.62,108.46c6.54,10.78,12.55,22,17.95,33.43
			c0.32,0.65,0.62,1.3,0.92,1.95c0.59-0.42,1.19-0.82,1.78-1.22C735.26,421.03,735.11,420.7,734.95,420.38z M745.29,519.19
			c-2.72-21.48-8.75-44.75-17.81-68.12c-0.26-0.69-0.53-1.38-0.8-2.07c-0.58,0.45-1.16,0.91-1.74,1.38c0.14,0.35,0.27,0.7,0.4,1.05
			c0.14,0.34,0.27,0.68,0.4,1.02c8.86,23,14.76,45.88,17.44,67.01c3.85,30.41,0.11,53.98-9.98,63.03
			c-6.19,5.55-14.17,8.45-22.99,8.45c-2.42,0-4.9-0.22-7.43-0.67v0.01l-0.18,1.03l-0.18,1.02l2.1,0.36
			c1.92,0.25,3.83,0.37,5.69,0.37c9.42,0,17.86-3.1,24.41-8.98C745.24,574.55,749.22,550.3,745.29,519.19z M726.68,449
			c-0.58,0.45-1.16,0.91-1.74,1.38c0.14,0.35,0.27,0.7,0.4,1.05c0.14,0.34,0.27,0.68,0.4,1.02c0.29-0.23,0.58-0.47,0.87-0.69
			c0.29-0.24,0.58-0.46,0.87-0.69C727.22,450.38,726.95,449.69,726.68,449z M764.31,516.79c-3.12-24.59-10.43-51.23-21.05-77.42
			c-0.13-0.33-0.27-0.66-0.4-0.99c-0.14-0.34-0.28-0.68-0.42-1.02c-0.59,0.41-1.19,0.83-1.78,1.25c0.28,0.67,0.55,1.33,0.81,2
			c10.45,25.88,17.65,52.17,20.72,76.45c4.78,37.74-0.97,66.05-16.19,79.7c-9.58,8.6-22.35,13.33-35.95,13.33
			c-2.8,0-5.64-0.2-8.47-0.6l-2.09-0.36l-0.19,1.06v0.01l-0.19,1.06c3.68,0.64,7.34,0.96,10.94,0.96c14.07,0,27.29-4.83,37.37-13.87
			C763.18,584.22,769.17,555.25,764.31,516.79z M725.74,452.45c0.29-0.23,0.58-0.47,0.87-0.69c0.29-0.24,0.58-0.46,0.87-0.69
			c-0.26-0.69-0.53-1.38-0.8-2.07c-0.58,0.45-1.16,0.91-1.74,1.38c0.14,0.35,0.27,0.7,0.4,1.05
			C725.48,451.77,725.61,452.11,725.74,452.45z M726.68,449c-0.58,0.45-1.16,0.91-1.74,1.38c0.14,0.35,0.27,0.7,0.4,1.05
			c0.14,0.34,0.27,0.68,0.4,1.02c0.29-0.23,0.58-0.47,0.87-0.69c0.29-0.24,0.58-0.46,0.87-0.69
			C727.22,450.38,726.95,449.69,726.68,449z"/>
	</g>
</g>
</svg>
